PathFileType	4	(X/Y/Z)	Patient4_TMGait_0pt7_01_left_47.trc.trc
DataRate	CameraRate	NumFrames	NumMarkers	Units	OrigDataRate	OrigDataStartFrame	OrigNumFrames
84.337349397590	84.337349397590	5	33	mm	84.337349397590	71	       141
Frame#	Time	Sacral			L.Shoulder			Chest			R.Shoulder			Neck			R.ASIS			L.ASIS			R.Thigh.Superior			R.Thigh.Lateral			R.Thigh.Inferior			R.Patella			L.Thigh.Superior			L.Thigh.Lateral			L.Thigh.Inferior			L.Patella			L.Shank.Superior			L.Shank.Lateral			L.Shank.Inferior			R.Shank.Superior			R.Shank.Lateral			R.Shank.Inferior			R.Heel			R.Midfoot.Superior			R.Midfoot.Lateral			R.Toe			L.Heel			L.Midfoot.Lateral			L.Midfoot.Superior			L.Toe			L.Elbow			L.Wrist			R.Elbow			R.Wrist			
		X1	Y1	Z1	X2	Y2	Z2	X3	Y3	Z3	X4	Y4	Z4	X5	Y5	Z5	X6	Y6	Z6	X7	Y7	Z7	X8	Y8	Z8	X9	Y9	Z9	X10	Y10	Z10	X11	Y11	Z11	X12	Y12	Z12	X13	Y13	Z13	X14	Y14	Z14	X15	Y15	Z15	X16	Y16	Z16	X17	Y17	Z17	X18	Y18	Z18	X19	Y19	Z19	X20	Y20	Z20	X21	Y21	Z21	X22	Y22	Z22	X23	Y23	Z23	X24	Y24	Z24	X25	Y25	Z25	X26	Y26	Z26	X27	Y27	Z27	X28	Y28	Z28	X29	Y29	Z29	X30	Y30	Z30	X31	Y31	Z31	X32	Y32	Z32	X33	Y33	Z33	

71	55.380000000000	844.454367001523	1013.225252934018	464.094243815174	1080.078399977324	1429.844516106834	296.164956234465	1159.328586718891	1346.089042119985	464.127670404420	1066.386787910209	1428.810830885833	628.882163583428	1071.856126824270	1485.541954132239	450.413115872189	1060.991041616495	940.293679612828	595.814249387686	1062.209273823762	949.229809150393	320.686444053517	1137.905448680787	778.628857594876	569.282036746768	1101.401388585119	657.491756733245	648.505974392526	1188.698609939173	620.536611492396	567.444136107335	1226.974675134005	541.364343587441	587.848356625647	1062.605582254142	724.732108934186	354.658871741374	950.848764963198	632.338022310055	283.186885288593	1004.791562609644	537.566694492872	352.471404671885	987.496749776588	470.917166363804	361.037026092385	952.703058100881	404.793423629770	349.047446356463	848.608773117048	306.459965431746	293.652418669953	876.708064091808	188.096261172749	364.608856499033	1215.447261467058	451.472315618148	601.107744810805	1169.504468835255	337.037308918811	669.595480799108	1241.112645513510	252.763185561516	617.871768264808	1154.657827296235	62.023189871976	595.425125824950	1316.717472766887	141.959106941151	633.255646257242	1242.043953179784	59.145963506560	663.977591683289	1443.310442043950	106.672446233565	650.818732061590	729.345777116839	41.820149719843	399.439581972067	803.391751260747	37.649427520044	319.869123232183	888.238854071400	96.240712995305	347.834940766883	1014.923975858060	39.588009627038	317.114993324192	1104.090842627808	1119.759687262296	118.472496077849	1350.933140375567	1127.238843536711	175.312864669943	891.360733819063	1124.983693568650	721.795246985770	856.825450454433	865.300725215935	743.507222318049	
72	55.391857142857	845.793579680917	1010.522538489479	466.931048748970	1079.603558489606	1427.902942373430	298.224251183633	1159.257174665223	1344.491156264025	466.082791336343	1066.366484012381	1427.059038135919	630.844880732038	1071.275561231658	1483.578752722542	452.337347999889	1062.654441694924	937.871446401608	597.835700130116	1063.246949629952	947.099548600138	322.670491110961	1137.685330676623	773.992597654918	571.830763133476	1099.155478037250	653.073362616698	650.608615319584	1186.020454368919	615.616334787233	569.406166889241	1222.868643058062	537.275841587618	589.185535156507	1061.891242730178	722.187079396479	356.068850454589	948.903353969541	630.892492747012	284.766256921793	1002.098730659478	535.417384809292	353.541112622844	984.021275205868	468.683181729115	362.089981107163	948.418313105604	403.021447964241	349.989774730850	842.999038553285	306.096879258271	294.367736595986	869.484147003256	187.226364490794	364.988250303974	1213.150771118556	447.451978043123	602.526483179870	1168.663050995959	331.963066068895	669.998163979897	1242.229433635535	249.173737562055	618.248662650301	1159.323688088674	57.286139266063	594.217507132087	1319.859449969872	139.341693173693	633.226664732111	1246.330071073782	55.388961736536	663.127732731654	1446.904469750799	105.997847865082	651.114041060226	720.945727656932	41.804905037842	399.406236129288	795.037444388377	37.582518259940	319.872214842224	879.909191722403	96.117085443124	347.926825656831	1006.576372749142	39.532828929499	317.121050872132	1108.597257277539	1118.155332295506	121.402525337878	1354.329026860976	1133.130749918278	180.475257198252	889.613734620111	1124.733346392111	723.665751889706	852.666542195947	865.227818993793	744.724778949480	
73	55.403714285714	847.297545560859	1007.700260348655	469.922016628307	1079.004005479476	1425.862464073118	300.419211828428	1159.234681753416	1342.857599207326	468.118176787084	1066.458724433081	1425.225243758780	632.978639373353	1070.658706127505	1481.557531209937	454.413528632842	1064.481931703675	935.308674505235	599.994978288238	1064.445350920795	944.884480915112	324.823891477249	1137.986748607146	769.522206900784	574.592747780137	1097.219324420694	648.606083693144	652.389064199220	1184.064443665535	610.982050667455	571.421397059574	1219.166710950746	532.845701451130	590.387434715930	1061.554675661401	719.651676559713	357.509584420665	947.395643593902	629.358054683176	286.466332314059	1000.076754962645	533.186297704561	354.588620516562	981.307611687736	466.238203411321	363.086817667927	944.649563711109	401.105922913916	350.923727574090	837.709468972304	305.825692798672	295.088770343865	862.432763271823	186.379714604318	365.265748672325	1210.536289380954	442.952383636731	603.586295182851	1166.381708456078	326.886866361347	669.898858918578	1241.013701071499	244.990687053922	618.113286297215	1159.702820129076	53.284897372211	592.538873564237	1319.442989385906	135.563471820594	632.473374881815	1246.232564840156	51.662186326069	661.902918821693	1446.499022013567	102.862956875248	650.916451977742	712.523062585120	41.970884899385	399.293624004021	786.688300791605	37.553482063016	319.824694566715	871.648718257471	96.015053661735	347.923131376209	998.264391869706	39.462875056649	317.104963685810	1112.504296740725	1116.270201380159	124.649704483656	1357.034781051470	1137.860637066724	185.787499083340	889.122195214706	1123.759961142721	726.108171220030	850.408867462496	864.337731324584	746.213110000603	
74	55.415571428571	848.926056545863	1004.858729321899	473.029690548417	1078.335075565686	1423.768364467954	302.755365232049	1159.293582958401	1341.226068768847	470.255449907982	1066.686556934058	1423.362975973759	635.298287969646	1070.065111656220	1479.538613081297	456.657399997777	1066.437954571958	932.686868652850	602.300027901946	1065.790504488722	942.659752405454	327.154389058683	1138.814994762005	765.279453717733	577.562922987371	1095.571459949513	644.195220088105	653.824897953536	1182.810986120170	606.708303960919	573.457928888995	1215.930571444596	528.222228812361	591.393687110790	1061.599902712035	717.188433200508	358.968765928522	946.340989821201	627.767809792523	288.285444294496	998.781154790985	530.910692620458	355.601764920032	979.441175955777	463.601013264244	363.996432240458	941.450671116545	399.079060111293	351.840312786309	832.787527703534	305.705604830435	295.821767533508	855.601752402396	185.614540104554	365.433284717552	1207.741945428850	438.144408208550	604.262628182096	1163.002612399638	321.896090049080	669.401550642679	1237.869283937648	240.332257660181	617.509928423409	1156.334733720118	49.942071105492	590.632387532371	1316.039417354756	130.812463368394	631.030115339851	1242.400508443637	48.044264593861	660.468222551185	1442.773732382403	97.572554703631	650.145459741887	704.092430653430	42.424079854313	399.098972469701	778.350799454793	37.614263705166	319.724835282504	863.497602572901	95.950226415731	347.806883208686	989.993871098685	39.379881554868	317.063215159387	1115.750405194137	1114.108294143646	128.193246915762	1359.080909652138	1141.387444215159	191.217897898063	889.841009151828	1122.092854715519	729.070305172386	850.023825690590	862.664356574545	747.998337573630	
75	55.427428571429	850.626819881619	1002.111872269906	476.211338188014	1077.653286529530	1421.682942744081	305.231405989659	1159.464311503065	1339.646119176709	472.510652197440	1067.074698304144	1421.538844116464	637.810454915578	1069.562620983022	1477.595847992594	459.076614817071	1068.476875026178	930.109302518214	604.749308357271	1067.257389101740	940.513911846997	329.655616482159	1140.127954262317	761.315015877892	580.717448510955	1094.195397260708	639.978070763738	654.952393907858	1182.177950344048	602.860360337194	575.476810265579	1213.190186367814	523.593360934848	592.180617799986	1062.034070713116	714.871045026628	360.437951113535	945.769073003617	626.158031477439	290.225630641447	998.280124640703	528.639042691770	356.584367911988	978.517997449775	460.804683342461	364.800549793903	938.896487453915	396.985125849021	352.738443039231	828.307656838626	305.808350313629	296.580995745268	849.060140870365	185.004376256314	365.496012400248	1204.904357773868	433.254097794026	604.585840584103	1158.909703742340	317.130250422263	668.645479842553	1233.286043181422	235.414151652598	616.529435872908	1149.969716763394	47.217976292611	588.719377258189	1310.338705025683	125.420265949892	629.005628893463	1235.661525356107	44.677157862594	658.982494317066	1436.522680126033	90.665929769260	648.807748028598	695.687602351125	43.306737038862	398.831009026988	770.040074488717	37.847514279597	319.578367271653	855.511039325472	95.945880372430	347.569021546275	981.767244208061	39.283881466668	316.994168327454	1118.273206498486	1111.685318413446	132.012332217045	1360.492712618340	1143.670468603673	196.730021826831	891.708984438140	1119.804722689341	732.481843999576	851.463327606492	860.287713469073	750.119415926321	
